<?xml version="1.0" standalone="no"?>
<!DOCTYPE svg PUBLIC "-//W3C//DTD SVG 20010904//EN"
 "http://www.w3.org/TR/2001/REC-SVG-20010904/DTD/svg10.dtd">
<svg version="1.0" xmlns="http://www.w3.org/2000/svg"
 width="100.000000pt" height="100.000000pt" viewBox="0 0 500.000000 500.000000"
 preserveAspectRatio="xMidYMid meet">

<g transform="translate(0.000000,500.000000) scale(0.100000,-0.100000)"
fill="#000000" stroke="none">
<path d="M1202 3879 c-70 -12 -191 -54 -267 -91 -333 -166 -544 -491 -562
-863 -19 -404 198 -773 561 -955 150 -75 266 -102 441 -104 82 0 164 5 197 12
l57 13 -82 61 c-110 82 -374 349 -465 471 -147 196 -230 361 -264 527 -23 113
-16 182 28 276 50 106 215 244 291 244 66 0 154 -84 247 -236 85 -140 130
-321 93 -377 -17 -26 -138 -98 -169 -100 -12 -1 -18 -9 -18 -25 0 -17 57 -83
209 -240 246 -255 319 -327 324 -321 3 2 13 31 23 63 26 81 53 100 150 104 65
4 156 -7 215 -24 32 -9 119 163 161 320 19 69 22 106 22 251 0 155 -3 178 -28
260 -54 181 -141 329 -262 451 -88 88 -167 142 -288 200 -150 70 -217 85 -401
89 -88 2 -184 0 -213 -6z"/>
<path d="M2830 2995 c0 -34 1 -35 40 -35 l40 0 0 -125 0 -125 40 0 40 0 0 125
0 125 35 0 c33 0 35 2 35 35 l0 35 -115 0 -115 0 0 -35z"/>
<path d="M3155 3018 c-32 -17 -45 -39 -45 -78 0 -48 18 -71 79 -100 53 -24 62
-39 36 -60 -13 -11 -26 -10 -70 2 l-55 15 0 -34 c0 -40 24 -53 96 -53 78 0
124 36 124 97 0 41 -24 70 -81 99 -35 17 -49 30 -47 42 4 18 45 22 84 9 18 -6
24 -2 33 23 9 28 8 32 -15 40 -34 13 -114 12 -139 -2z"/>
<path d="M3380 2870 l0 -160 40 0 40 0 0 65 0 65 55 0 55 0 0 -65 0 -65 40 0
40 0 0 160 0 160 -40 0 -40 0 0 -60 0 -60 -55 0 -55 0 0 60 0 60 -40 0 -40 0
0 -160z"/>
<path d="M3782 3015 c-83 -36 -96 -199 -22 -270 26 -25 40 -30 93 -33 109 -6
161 45 161 157 0 78 -21 123 -70 146 -40 19 -118 19 -162 0z m127 -71 c15 -19
21 -41 21 -74 0 -59 -24 -92 -65 -92 -43 0 -65 33 -65 98 0 41 5 59 20 74 28
28 64 25 89 -6z"/>
<path d="M4080 2871 l0 -161 40 0 40 0 0 54 0 53 46 6 c65 7 99 42 99 102 0
35 -6 50 -27 72 -24 24 -36 27 -112 31 l-86 5 0 -162z m143 68 c6 -23 -26 -63
-46 -56 -7 2 -13 20 -15 40 -3 35 -2 37 26 37 22 0 31 -6 35 -21z"/>
</g>
</svg>
